# AST/ASF file generated using VICON BodyLanguage
# -----------------------------------------------
:version 1.10
:name VICON
:units
  mass 1.0
  length 0.45
  angle deg
:documentation
   .ast/.asf automatically generated from VICON data using
   VICON BodyBuilder and BodyLanguage model FoxedUp or BRILLIANT.MOD
:root
   order TX TY TZ RX RY RZ
   axis XYZ
   position 0 0 0  
   orientation 0 0 0 
:bonedata
  begin
     id 1 
     name lhipjoint
     direction 0.707368 -0.647095 0.284426 
     length 2.60678 
     axis 0 0 0  XYZ
  end
  begin
     id 2 
     name lfemur
     direction 0.34202 -0.939693 0  
     length 6.63812  
     axis 0 0 20  XYZ
    dof rx ry rz
    limits (-160.0 20.0)
           (-70.0 70.0)
           (-60.0 70.0)
  end
  begin
     id 3 
     name ltibia
     direction 0.34202 -0.939693 0   
     length 7.51178   
     axis 0 0 20   XYZ
    dof rx
    limits (-10.0 170.0)
  end
  begin
     id 4 
     name lfoot
     direction 0.121251 -0.333133 0.935051   
     length 1.83716   
     axis -90 7.62852e-016 20   XYZ
    dof rx rz
    limits (-45.0 90.0)
           (-70.0 20.0)
  end
  begin
     id 5 
     name ltoes
     direction 1.53611e-011 -4.21962e-011 1   
     length 0.916133   
     axis -90 7.62852e-016 20   XYZ
    dof rx
    limits (-90.0 20.0)
  end
  begin
     id 6 
     name rhipjoint
     direction -0.692419 -0.660507 0.290321   
     length 2.55385  
     axis 0 0 0  XYZ 
  end
  begin
     id 7 
     name rfemur
     direction -0.34202 -0.939693 0   
     length 7.29079   
     axis 0 0 -20   XYZ
    dof rx ry rz
    limits (-160.0 20.0)
           (-70.0 70.0)
           (-70.0 60.0)
  end
  begin
     id 8 
     name rtibia
     direction -0.34202 -0.939693 0   
     length 7.47143   
     axis 0 0 -20   XYZ
    dof rx
    limits (-10.0 170.0)
 end
 begin
     id 9 
     name rfoot
     direction -0.119907 -0.329441 0.936532   
     length 1.79439  
     axis -90 -7.62852e-016 -20   XYZ
    dof rx rz
    limits (-45.0 90.0)
           (-20.0 70.0)
  end
  begin
     id 10 
     name rtoes
     direction -1.53571e-011 -4.21961e-011 1   
     length 0.896039   
     axis -90 -7.62852e-016 -20   XYZ
    dof rx
    limits (-90.0 20.0)
  end
  begin
     id 11 
     name lowerback
     direction 0.0367721 0.992912 -0.113016   
     length 1.73542   
     axis 0 0 0   XYZ
    dof rx ry rz
    limits (-20.0 45.0)
           (-30.0 30.0)
           (-30.0 30.0)
  end
  begin
     id 12 
     name upperback
     direction -0.000314626 0.990678 0.136227   
     length 1.7514   
     axis 0 0 0   XYZ
    dof rx ry rz
    limits (-20.0 45.0)
           (-30.0 30.0)
           (-30.0 30.0)
  end
  begin
     id 13 
     name thorax
     direction -0.0226159 0.981151 0.191917   
     length 1.71471   
     axis 0 0 0   XYZ
    dof rx ry rz
    limits (-20.0 45.0)
           (-30.0 30.0)
           (-30.0 30.0)
  end
  begin
     id 14 
     name lowerneck
     direction 0.0219333 0.998071 0.0580739   
     length 1.65882   
     axis 0 0 0   XYZ
    dof rx ry rz
    limits (-20.0 45.0)
           (-30.0 30.0)
           (-30.0 30.0)
  end
  begin
     id 15 
     name upperneck
     direction 0.0384529 0.980058 -0.194957   
     length 1.6612   
     axis 0 0 0   XYZ
    dof rx ry rz
    limits (-20.0 45.0)
           (-30.0 30.0)
           (-30.0 30.0)
  end
  begin
     id 16
     name head
     direction 0.00592123 0.997421 -0.0715234  
     length 1.68077  
     axis 0 0 0   XYZ
    dof rx ry rz
    limits (-20.0 45.0)
           (-30.0 30.0)
           (-30.0 30.0)
  end
  begin
     id 17 
     name lclavicle
     direction 0.904803 0.417826 0.0821728  
     length 3.42227  
     axis 0 0 0   XYZ
    dof ry rz
    limits (-20.0 10.0)
           (0.0 20.0)
  end
  begin
     id 18 
     name lhumerus
     direction 1 -4.48965e-011 -2.68786e-027   
     length 5.11878   
     axis -180 -30 -90   XYZ
    dof rx ry rz
    limits (-60.0 90.0)
           (-90.0 90.0)
           (-90.0 90.0)
  end
  begin
     id 19
     name lradius
     direction 1 -4.48965e-011 2.61168e-028   
     length 3.59971   
     axis -180 -30 -90   XYZ
    dof rx
    limits (-10.0 170.0)
  end
  begin
     id 20
     name lwrist
     direction 1 -4.48965e-011 1.58672e-027   
     length 1.79985   
     axis -1.65735e-015 90 90   XYZ
    dof ry
    limits (-180.0 0.0)
 end
  begin
     id 21 
     name lhand
     direction 1 -4.48942e-011 3.17344e-027   
     length 0.62877   
     axis -2.02492e-015 90 90   XYZ
    dof rx rz
    limits (-90.0 90.0)
           (-45.0 45.0)
  end
  begin
     id 22 
     name lfingers
     direction 1 -4.49011e-011 6.34687e-027   
     length 0.506931   
     axis -4.04985e-015 90 90   XYZ
    dof rx
    limits (0.0 90.0)
  end
  begin
     id 23
     name lthumb
     direction 0.707107 -6.34982e-011 0.707107   
     length 0.727854   
     axis -90 45 2.85299e-015   XYZ
    dof rx rz
    limits (-45.0 45.0)
           (-45.0 45.0)
  end
  begin
     id 24 
     name rclavicle
     direction -0.945647 0.32488 0.0143075   
     length 3.52737  
     axis 0 0 0   XYZ 
    dof ry rz
    limits (-10.0 20.0)
           (-20.0 0.0)
  end
  begin
     id 25 
     name rhumerus
     direction -1 -4.48962e-011 1.92182e-027  
     length 5.4902   
     axis -180 30 90   XYZ
    dof rx ry rz
    limits (-90.0 60.0)
           (-90.0 90.0)
           (-90.0 90.0)
  end
  begin
     id 26 
     name rradius
     direction -1 -4.48967e-011 -5.97193e-028   
     length 3.20659   
     axis -180 30 90   XYZ
    dof rx
    limits (-10.0 170.0)
  end
  begin
     id 27 
     name rwrist
     direction -1 -4.48964e-011 1.58672e-027   
     length 1.6033   
     axis -1.65735e-015 -90 -90   XYZ
    dof ry
    limits (-180.0 0.0)
  end
  begin
     id 28
     name rhand
     direction -1 -4.49006e-011 3.17344e-027   
     length 0.691885   
     axis -2.02492e-015 -90 -90   XYZ
    dof rx rz
    limits (-90.0 90.0)
           (-45.0 45.0)
  end
  begin
     id 29
     name rfingers
     direction -1 -4.48908e-011 6.34687e-027   
     length 0.557815   
     axis -4.04985e-015 -90 -90   XYZ
    dof rx
    limits (0.0 90.0)
  end
  begin
     id 30
     name rthumb
     direction -0.707107 -6.34999e-011 0.707107   
     length 0.800915   
     axis -90 -45 -2.85299e-015   XYZ
    dof rx rz
    limits (-45.0 45.0)
           (-45.0 45.0)
  end
:hierarchy
  begin
    root lhipjoint rhipjoint lowerback
    lhipjoint lfemur
    lfemur ltibia
    ltibia lfoot
    lfoot ltoes
    rhipjoint rfemur
    rfemur rtibia
    rtibia rfoot
    rfoot rtoes
    lowerback upperback
    upperback thorax
    thorax lowerneck lclavicle rclavicle
    lowerneck upperneck
    upperneck head
    lclavicle lhumerus
    lhumerus lradius
    lradius lwrist
    lwrist lhand lthumb
    lhand lfingers
    rclavicle rhumerus
    rhumerus rradius
    rradius rwrist
    rwrist rhand rthumb
    rhand rfingers
  end

#!OML:ASF I:\Actors\actors\Patient Classification 1\Patient 1\Session 1\Subject1.ASF
:FULLY-SPECIFIED
:DEGREES
96
root 0.605801 17.5008 9.34771 10.9868 -1.41194 -8.42025
lowerback -0.606155 0.914118 7.01319
upperback -10.0426 1.63195 0.500346
thorax -10.2151 0.214166 -3.5072
lowerneck -2.54765 -14.0405 -11.3976
upperneck 17.3125 -20.5818 11.2474
head 8.13244 -9.8945 3.5133
rclavicle 2.48481e-015 8.74653e-015
rhumerus -64.1268 -51.7105 -34.7095
rradius 24.6602
rwrist 45.5545
rhand 8.10877 -33.2945
rfingers 7.12502
rthumb 33.3304 -60.2244
lclavicle 2.48481e-015 8.74653e-015
lhumerus -56.3033 44.2644 43.2638
lradius 23.3015
lwrist -21.3988
lhand -15.6994 -6.92766
lfingers 7.12502
lthumb 10.4901 22.7906
rfemur -5.81202 26.8912 24.2443
rtibia 1.58888
rfoot -10.7047 -25.8193
rtoes 0.997989
lfemur 3.57585 -47.076 -11.3887
ltibia -4.38106
lfoot -23.6824 54.2325
ltoes 10.1847
97
root 0.605499 17.5012 9.34844 10.963 -1.39724 -8.43762
lowerback -0.558095 0.900065 7.04171
upperback -10.0509 1.61757 0.48212
thorax -10.2547 0.201893 -3.54275
lowerneck -2.44295 -14.0677 -11.3502
upperneck 17.2193 -20.6216 11.2482
head 8.08282 -9.91797 3.51166
rclavicle -6.95746e-016 2.54444e-014
rhumerus -64.1794 -51.6584 -34.6969
rradius 24.7198
rwrist 45.6324
rhand 8.25391 -33.1896
rfingers 7.12502
rthumb 33.4684 -60.0898
lclavicle -6.95746e-016 2.54444e-014
lhumerus -56.2801 44.2389 43.2785
lradius 23.318
lwrist -21.4797
lhand -15.6792 -6.82971
lfingers 7.12502
lthumb 10.5096 22.8876
rfemur -5.75185 26.9516 24.2931
rtibia 1.55365
rfoot -10.6831 -25.9014
rtoes 1.01884
lfemur 3.64769 -47.131 -11.4185
ltibia -4.39989
lfoot -23.6895 54.2782
ltoes 10.0693
98
root 0.605017 17.5012 9.34888 10.9596 -1.40489 -8.4385
lowerback -0.556389 0.885938 7.03637
upperback -10.0467 1.59724 0.47245
thorax -10.2531 0.191957 -3.54861
lowerneck -2.36988 -14.0585 -11.4175
upperneck 17.1782 -20.6421 11.4211
head 8.08575 -9.92396 3.57824
rclavicle 6.85807e-015 -1.59028e-015
rhumerus -64.0263 -51.5514 -34.9185
rradius 24.7592
rwrist 45.4971
rhand 8.27719 -33.1986
rfingers 7.12502
rthumb 33.4905 -60.094
lclavicle 6.85807e-015 -1.59028e-015
lhumerus -56.3456 44.3722 43.135
lradius 23.324
lwrist -21.7067
lhand -15.5227 -6.96315
lfingers 7.12502
lthumb 10.6606 22.7464
rfemur -5.74737 26.9434 24.3013
rtibia 1.55178
rfoot -10.6774 -25.8883
rtoes 0.917942
lfemur 3.68614 -47.1497 -11.4467
ltibia -4.41091
lfoot -23.6932 54.3233
ltoes 10.0092
99
root 0.604671 17.5015 9.34857 10.9691 -1.44039 -8.40982
lowerback -0.549495 0.88414 7.00725
upperback -10.0558 1.59269 0.454046
thorax -10.2678 0.190445 -3.55206
lowerneck -2.30473 -14.0394 -11.5954
upperneck 17.1656 -20.6723 11.7265
head 8.12805 -9.93059 3.69842
rclavicle 1.20265e-014 -2.94201e-014
rhumerus -63.7523 -51.3417 -35.3111
rradius 24.7997
rwrist 45.1628
rhand 8.21848 -33.2284
rfingers 7.12502
rthumb 33.4347 -60.1359
lclavicle 1.20265e-014 -2.94201e-014
lhumerus -56.3592 44.4637 43.0683
lradius 23.3079
lwrist -21.7778
lhand -15.4376 -7.18494
lfingers 7.12502
lthumb 10.7427 22.5204
rfemur -5.77979 26.9045 24.2529
rtibia 1.56733
rfoot -10.6942 -25.8313
rtoes 0.973312
lfemur 3.66561 -47.0921 -11.4667
ltibia -4.40801
lfoot -23.6703 54.309
ltoes 10.0423
100
root 0.604698 17.5023 9.3486 10.9783 -1.45818 -8.35286
lowerback -0.546243 0.88707 6.9495
upperback -10.064 1.59214 0.428051
thorax -10.2784 0.193228 -3.54796
lowerneck -2.30829 -14.0663 -11.684
upperneck 17.1891 -20.7333 11.8467
head 8.16785 -9.95536 3.73819
rclavicle 7.45443e-015 1.11319e-014
rhumerus -63.7065 -51.2562 -35.4065
rradius 24.844
rwrist 45.0243
rhand 8.23286 -33.2629
rfingers 7.12502
rthumb 33.4484 -60.1674
lclavicle 7.45443e-015 1.11319e-014
lhumerus -56.1593 44.3285 43.3452
lradius 23.3307
lwrist -21.5486
lhand -15.4204 -7.18213
lfingers 7.12502
lthumb 10.7593 22.5223
rfemur -5.79124 26.8848 24.172
rtibia 1.56095
rfoot -10.7405 -25.8046
rtoes 1.16886
lfemur 3.64794 -47.1059 -11.5288
ltibia -4.39281
lfoot -23.6368 54.3266
ltoes 10.0153
101
root 0.6047 17.5027 9.34907 10.9889 -1.48259 -8.31165
lowerback -0.543039 0.87548 6.90106
upperback -10.0747 1.57312 0.41021
thorax -10.2943 0.186272 -3.53885
lowerneck -2.3679 -14.1042 -11.6714
upperneck 17.2831 -20.7848 11.7909
head 8.20868 -9.97781 3.70496
rclavicle 8.94531e-016 1.19271e-014
rhumerus -63.8012 -51.2841 -35.3018
rradius 24.8617
rwrist 45.136
rhand 8.29039 -33.2798
rfingers 7.12502
rthumb 33.5031 -60.1725
lclavicle 8.94531e-016 1.19271e-014
lhumerus -55.9579 44.1422 43.6426
lradius 23.3765
lwrist -21.2938
lhand -15.471 -7.10155
lfingers 7.12502
lthumb 10.7104 22.6054
rfemur -5.80369 26.8443 24.1115
rtibia 1.55535
rfoot -10.7266 -25.739
rtoes 1.07986
lfemur 3.67723 -47.2234 -11.6159
ltibia -4.37191
lfoot -23.7921 54.4188
ltoes 10.0463
102
root 0.604344 17.5026 9.3494 10.9914 -1.50966 -8.31526
lowerback -0.529201 0.843918 6.8874
upperback -10.0902 1.53201 0.41761
thorax -10.3253 0.166083 -3.52047
lowerneck -2.42536 -14.1154 -11.6046
upperneck 17.398 -20.7881 11.6544
head 8.23465 -9.97987 3.64619
rclavicle 3.57812e-015 -1.27222e-014
rhumerus -63.7612 -51.259 -35.3495
rradius 24.8355
rwrist 45.1969
rhand 8.27719 -33.3755
rfingers 7.12502
rthumb 33.4905 -60.2709
lclavicle 3.57812e-015 -1.27222e-014
lhumerus -55.6028 43.7252 44.1876
lradius 23.4384
lwrist -20.6728
lhand -15.5461 -7.15659
lfingers 7.12502
lthumb 10.638 22.5541
rfemur -5.80765 26.8583 24.1137
rtibia 1.56258
rfoot -10.7045 -25.7259
rtoes 1.09391
lfemur 3.72204 -47.3449 -11.6549
ltibia -4.36107
lfoot -24.0839 54.5124
ltoes 10.3085
103
root 0.603876 17.503 9.3505 10.9846 -1.52679 -8.31096
lowerback -0.541834 0.828143 6.86465
upperback -10.0867 1.50867 0.424503
thorax -10.3165 0.157358 -3.49825
lowerneck -2.41797 -14.1211 -11.6506
upperneck 17.4251 -20.7977 11.6553
head 8.2489 -9.98684 3.65111
rclavicle 2.16675e-014 7.95139e-016
rhumerus -63.7017 -51.2465 -35.3988
rradius 24.7886
rwrist 45.1822
rhand 8.18399 -33.3938
rfingers 7.12502
rthumb 33.402 -60.3083
lclavicle 2.16675e-014 7.95139e-016
lhumerus -54.9772 43.0547 45.119
lradius 23.5104
lwrist -19.7024
lhand -15.6201 -7.1238
lfingers 7.12502
lthumb 10.5666 22.5906
rfemur -5.79233 26.8992 24.1153
rtibia 1.56005
rfoot -10.7035 -25.7553
rtoes 1.16462
lfemur 3.74832 -47.4203 -11.6887
ltibia -4.34213
lfoot -24.528 54.5316
ltoes 10.8092
104
root 0.60347 17.5033 9.35147 10.9913 -1.53881 -8.29777
lowerback -0.571298 0.839461 6.85469
upperback -10.0836 1.51887 0.401816
thorax -10.2935 0.162929 -3.51726
lowerneck -2.35217 -14.1315 -11.7835
upperneck 17.3977 -20.8384 11.8104
head 8.26599 -10.0067 3.71698
rclavicle 8.15017e-015 7.15625e-015
rhumerus -63.8109 -51.3044 -35.2669
rradius 24.7631
rwrist 45.2193
rhand 8.16061 -33.3028
rfingers 7.12502
rthumb 33.3797 -60.2221
lclavicle 8.15017e-015 7.15625e-015
lhumerus -54.5689 42.6916 45.6655
lradius 23.5546
lwrist -19.253
lhand -15.6504 -6.94593
lfingers 7.12502
lthumb 10.5374 22.7699
rfemur -5.80393 26.8468 24.0971
rtibia 1.55224
rfoot -10.6239 -25.7096
rtoes 0.850889
lfemur 3.72353 -47.4257 -11.6983
ltibia -4.30457
lfoot -24.83 54.4897
ltoes 11.1187
105
root 0.603226 17.5028 9.35174 11.0094 -1.55196 -8.31609
lowerback -0.586573 0.850606 6.8845
upperback -10.0998 1.53331 0.382964
thorax -10.3008 0.165717 -3.55508
lowerneck -2.30514 -14.1696 -11.7843
upperneck 17.3861 -20.8837 11.7566
head 8.25362 -10.0347 3.69724
rclavicle -9.24349e-015 -7.95139e-016
rhumerus -63.981 -51.3647 -35.0852
rradius 24.7505
rwrist 45.3057
rhand 8.24925 -33.3439
rfingers 7.12502
rthumb 33.464 -60.245
lclavicle -9.24349e-015 -7.95139e-016
lhumerus -54.4168 42.564 45.8623
lradius 23.6142
lwrist -19.1358
lhand -15.6798 -6.67971
lfingers 7.12502
lthumb 10.5091 23.0376
rfemur -5.8371 26.7952 24.1073
rtibia 1.56216
rfoot -10.5582 -25.6422
rtoes 0.499529
lfemur 3.69575 -47.4254 -11.6601
ltibia -4.28618
lfoot -24.8162 54.4945
ltoes 11.1856
106
root 0.603577 17.5023 9.35283 11.0072 -1.56875 -8.32576
lowerback -0.601199 0.853277 6.90067
upperback -10.1016 1.53627 0.380144
thorax -10.2938 0.165788 -3.56705
lowerneck -2.29722 -14.2459 -11.7121
upperneck 17.3724 -20.945 11.5213
head 8.22042 -10.0769 3.6054
rclavicle -9.93923e-016 -2.22639e-014
rhumerus -64.052 -51.4108 -34.9742
rradius 24.7228
rwrist 45.3767
rhand 8.34243 -33.4455
rfingers 7.12502
rthumb 33.5525 -60.3275
lclavicle -9.93923e-016 -2.22639e-014
lhumerus -54.2557 42.4122 46.1182
lradius 23.681
lwrist -18.905
lhand -15.7957 -6.51823
lfingers 7.12502
lthumb 10.3973 23.2047
rfemur -5.82307 26.8396 24.1185
rtibia 1.55142
rfoot -10.5832 -25.6401
rtoes 0.579463
lfemur 3.7403 -47.5029 -11.6877
ltibia -4.28425
lfoot -24.9502 54.5464
ltoes 11.3876
107
root 0.603878 17.5026 9.35442 10.9788 -1.58725 -8.31807
lowerback -0.61562 0.842175 6.87831
upperback -10.0814 1.51896 0.394086
thorax -10.2641 0.161536 -3.53776
lowerneck -2.26134 -14.314 -11.7395
upperneck 17.3337 -21.0131 11.4091
head 8.20005 -10.1212 3.56708
rclavicle 2.38542e-015 -5.56597e-015
rhumerus -63.9823 -51.4155 -35.0056
rradius 24.6996
rwrist 45.3864
rhand 8.37506 -33.4755
rfingers 7.12502
rthumb 33.5836 -60.3507
lclavicle 2.38542e-015 -5.56597e-015
lhumerus -54.1113 42.2969 46.3662
lradius 23.7351
lwrist -18.659
lhand -15.8299 -6.60991
lfingers 7.12502
lthumb 10.3643 23.1147
rfemur -5.76548 26.8916 24.1273
rtibia 1.52024
rfoot -10.6094 -25.6552
rtoes 0.77052
lfemur 3.83366 -47.5547 -11.7725
ltibia -4.29381
lfoot -24.9801 54.5973
ltoes 11.332
108
root 0.603785 17.5025 9.35538 10.9636 -1.60062 -8.32433
lowerback -0.60358 0.822911 6.87511
upperback -10.0922 1.49526 0.407575
thorax -10.2868 0.149776 -3.51996
lowerneck -2.13524 -14.3593 -11.9045
upperneck 17.2786 -21.0877 11.4913
head 8.19709 -10.1676 3.61411
rclavicle 5.1684e-015 1.27222e-014
rhumerus -63.9611 -51.3946 -35.0254
rradius 24.6793
rwrist 45.4056
rhand 8.35133 -33.4571
rfingers 7.12502
rthumb 33.561 -60.3372
lclavicle 5.1684e-015 1.27222e-014
lhumerus -53.9915 42.1053 46.614
lradius 23.8149
lwrist -18.3592
lhand -15.822 -6.68463
lfingers 7.12502
lthumb 10.3719 23.0396
rfemur -5.74337 26.8507 24.1469
rtibia 1.52273
rfoot -10.586 -25.6071
rtoes 0.607336
lfemur 3.85749 -47.4281 -11.773
ltibia -4.323
lfoot -24.5221 54.5791
ltoes 10.7407
109
root 0.603994 17.5018 9.35546 10.99 -1.6068 -8.34392
lowerback -0.617879 0.805069 6.89201
upperback -10.1181 1.47233 0.413486
thorax -10.3109 0.135824 -3.52111
lowerneck -2.00928 -14.4032 -12.0245
upperneck 17.2014 -21.1552 11.5461
head 8.17779 -10.2106 3.6482
rclavicle 7.85199e-015 -7.95139e-016
rhumerus -63.9623 -51.4108 -34.9963
rradius 24.6153
rwrist 45.4694
rhand 8.31518 -33.3921
rfingers 7.12502
rthumb 33.5266 -60.2797
lclavicle 7.85199e-015 -7.95139e-016
lhumerus -53.8074 41.839 46.8997
lradius 23.8372
lwrist -18.0343
lhand -15.8352 -6.64622
lfingers 7.12502
lthumb 10.3592 23.0786
rfemur -5.7783 26.8126 24.1571
rtibia 1.53818
rfoot -10.5564 -25.5777
rtoes 0.457757
lfemur 3.80056 -47.3317 -11.7005
ltibia -4.33797
lfoot -24.2911 54.5515
ltoes 10.4377
110
root 0.604105 17.5015 9.35551 11.0179 -1.61937 -8.3829
lowerback -0.6687 0.780594 6.89588
upperback -10.1119 1.43727 0.446462
thorax -10.278 0.121373 -3.48398
lowerneck -2.02643 -14.4609 -12.0244
upperneck 17.1916 -21.2041 11.4078
head 8.1678 -10.2428 3.59619
rclavicle -4.17448e-015 1.27222e-014
rhumerus -63.8195 -51.4431 -35.0737
rradius 24.528
rwrist 45.5561
rhand 8.27852 -33.3353
rfingers 7.12502
rthumb 33.4918 -60.2304
lclavicle -4.17448e-015 1.27222e-014
lhumerus -53.6724 41.7434 47.0586
lradius 23.7708
lwrist -17.8631
lhand -15.8487 -6.66877
lfingers 7.12502
lthumb 10.3462 23.0567
rfemur -5.81017 26.8456 24.186
rtibia 1.53909
rfoot -10.5504 -25.5913
rtoes 0.576322
lfemur 3.78405 -47.3873 -11.6452
ltibia -4.33597
lfoot -24.4837 54.5914
ltoes 10.6021
